<?xml version="1.0" standalone="no"?>
<!DOCTYPE svg PUBLIC "-//W3C//DTD SVG 20010904//EN"
 "http://www.w3.org/TR/2001/REC-SVG-20010904/DTD/svg10.dtd">
<svg version="1.0" xmlns="http://www.w3.org/2000/svg"
 width="700.000000pt" height="700.000000pt" viewBox="0 0 700.000000 700.000000"
 preserveAspectRatio="xMidYMid meet">
<metadata>
Created by potrace 1.14, written by Peter Selinger 2001-2017
</metadata>
<g transform="translate(0.000000,700.000000) scale(0.100000,-0.100000)"
fill="#000000" stroke="none">
<path d="M0 3500 l0 -3500 3500 0 3500 0 0 3500 0 3500 -3500 0 -3500 0 0
-3500z m3890 3040 c179 -12 374 -36 460 -57 205 -48 393 -201 490 -398 58
-119 74 -190 74 -330 0 -144 -16 -213 -78 -340 -98 -197 -277 -343 -483 -393
-40 -9 -73 -20 -73 -23 0 -3 37 -13 81 -23 174 -37 414 -137 561 -231 211
-137 369 -309 474 -517 88 -175 124 -319 131 -528 4 -118 1 -167 -15 -266 -82
-480 -386 -918 -824 -1185 -381 -233 -846 -345 -1493 -362 l-90 -2 60 -34 c79
-45 201 -169 253 -256 134 -228 142 -503 21 -735 -100 -193 -274 -332 -484
-386 -94 -24 -267 -24 -355 -1 -193 52 -414 185 -599 362 -250 239 -428 561
-502 906 -26 121 -36 363 -20 482 39 288 152 531 340 729 181 190 376 307 632
381 173 50 253 59 634 67 442 10 564 26 735 98 l65 27 -350 6 c-372 7 -492 18
-705 65 -588 131 -994 464 -1155 947 -96 290 -96 633 1 932 188 578 756 962
1549 1049 239 27 438 31 665 16z"/>
</g>
</svg>
