<svg width="160" height="22" viewBox="0 0 160 22" fill="none" xmlns="http://www.w3.org/2000/svg">
<path d="M151.737 21.5618C149.266 21.5618 147.259 21.0059 145.715 19.8942C144.171 18.7824 143.232 17.2198 142.898 15.2063L147.457 14.5022C147.691 15.4904 148.21 16.2686 149.013 16.8368C149.816 17.4051 150.829 17.6892 152.052 17.6892C153.127 17.6892 153.954 17.4792 154.535 17.0592C155.128 16.6268 155.424 16.0401 155.424 15.2989C155.424 14.8419 155.313 14.4774 155.091 14.2057C154.881 13.9216 154.411 13.6498 153.682 13.3904C152.954 13.131 151.836 12.8036 150.329 12.4084C148.649 11.9637 147.315 11.4881 146.326 10.9816C145.338 10.4628 144.628 9.85132 144.195 9.14721C143.763 8.4431 143.547 7.59075 143.547 6.59018C143.547 5.34254 143.874 4.25549 144.529 3.32903C145.184 2.40257 146.098 1.69229 147.271 1.19817C148.445 0.691709 149.828 0.438477 151.422 0.438477C152.978 0.438477 154.356 0.679356 155.554 1.16111C156.764 1.64287 157.74 2.32846 158.482 3.21786C159.223 4.10726 159.68 5.15107 159.853 6.3493L155.294 7.16458C155.183 6.31224 154.794 5.63901 154.127 5.1449C153.472 4.65079 152.595 4.37285 151.496 4.31108C150.446 4.24932 149.6 4.4099 148.957 4.79284C148.315 5.16343 147.994 5.68842 147.994 6.36783C147.994 6.75076 148.124 7.07811 148.383 7.34987C148.642 7.62164 149.161 7.8934 149.94 8.16516C150.73 8.43692 151.904 8.77045 153.46 9.16574C155.054 9.57338 156.326 10.0428 157.277 10.574C158.241 11.0928 158.932 11.7166 159.352 12.4454C159.785 13.1742 160.001 14.0575 160.001 15.0951C160.001 17.1086 159.266 18.6898 157.796 19.8386C156.338 20.9874 154.319 21.5618 151.737 21.5618Z" fill="#FDFDFD"/>
<path d="M118.439 21.0056L112.324 0.957031L116.697 0.994089L120.607 13.8348L124.572 0.994089H128.333L132.28 13.8348L136.208 0.994089H140.581L134.467 21.0056H130.983L126.443 7.23843L121.922 21.0056H118.439Z" fill="#FDFDFD"/>
<path d="M99.3447 21.5618C97.3436 21.5618 95.5956 21.1109 94.101 20.2092C92.6063 19.3074 91.4451 18.0659 90.6175 16.4848C89.8022 14.8913 89.3945 13.063 89.3945 11.0001C89.3945 8.90015 89.8145 7.05958 90.6545 5.47842C91.4945 3.89726 92.6618 2.66198 94.1565 1.77258C95.6512 0.883178 97.3806 0.438477 99.3447 0.438477C101.358 0.438477 103.112 0.889354 104.607 1.79111C106.102 2.69286 107.263 3.9405 108.091 5.53401C108.918 7.11517 109.332 8.93721 109.332 11.0001C109.332 13.0754 108.912 14.9098 108.072 16.5033C107.244 18.0845 106.083 19.3259 104.588 20.2277C103.094 21.1171 101.346 21.5618 99.3447 21.5618ZM99.3447 17.3742C101.124 17.3742 102.445 16.7812 103.31 15.5954C104.175 14.4095 104.607 12.8778 104.607 11.0001C104.607 9.06074 104.168 7.51664 103.291 6.36783C102.414 5.20666 101.099 4.62608 99.3447 4.62608C98.1465 4.62608 97.1583 4.89784 96.38 5.44136C95.6142 5.97254 95.0459 6.71988 94.6754 7.6834C94.3048 8.63457 94.1195 9.74014 94.1195 11.0001C94.1195 12.9395 94.558 14.4898 95.4351 15.651C96.3245 16.7998 97.6277 17.3742 99.3447 17.3742Z" fill="#FDFDFD"/>
<path d="M74.8027 21.0059V0.994331H78.7495V5.86752L78.2677 5.23752C78.5148 4.57047 78.8421 3.96518 79.2497 3.42166C79.6697 2.86578 80.17 2.40873 80.7506 2.0505C81.2447 1.71697 81.7882 1.45756 82.3812 1.27227C82.9865 1.07462 83.6041 0.957271 84.2341 0.920213C84.8641 0.870802 85.4756 0.895509 86.0685 0.994331V5.1634C85.4756 4.99047 84.79 4.93488 84.0118 4.99664C83.2459 5.05841 82.5541 5.27458 81.9365 5.64516C81.3188 5.97869 80.8124 6.40486 80.4171 6.92368C80.0341 7.4425 79.75 8.03543 79.5647 8.70248C79.3795 9.35718 79.2868 10.0675 79.2868 10.8333V21.0059H74.8027Z" fill="#FDFDFD"/>
<path d="M58.3574 21.0059V0.994331H62.3041V5.86752L61.8224 5.23752C62.0694 4.57047 62.3968 3.96518 62.8044 3.42166C63.2244 2.86578 63.7247 2.40873 64.3053 2.0505C64.7994 1.71697 65.3429 1.45756 65.9359 1.27227C66.5412 1.07462 67.1588 0.957271 67.7888 0.920213C68.4188 0.870802 69.0303 0.895509 69.6232 0.994331V5.1634C69.0303 4.99047 68.3447 4.93488 67.5664 4.99664C66.8006 5.05841 66.1088 5.27458 65.4912 5.64516C64.8735 5.97869 64.3671 6.40486 63.9718 6.92368C63.5888 7.4425 63.3047 8.03543 63.1194 8.70248C62.9341 9.35718 62.8415 10.0675 62.8415 10.8333V21.0059H58.3574Z" fill="#FDFDFD"/>
<path d="M43.0615 21.5618C41.0604 21.5618 39.3124 21.1109 37.8178 20.2092C36.3231 19.3074 35.1619 18.0659 34.3343 16.4848C33.519 14.8913 33.1113 13.063 33.1113 11.0001C33.1113 8.90015 33.5313 7.05958 34.3713 5.47842C35.2113 3.89726 36.3786 2.66198 37.8733 1.77258C39.368 0.883178 41.0974 0.438477 43.0615 0.438477C45.075 0.438477 46.8291 0.889354 48.3238 1.79111C49.8185 2.69286 50.9797 3.9405 51.8073 5.53401C52.635 7.11517 53.0488 8.93721 53.0488 11.0001C53.0488 13.0754 52.6288 14.9098 51.7888 16.5033C50.9611 18.0845 49.8 19.3259 48.3053 20.2277C46.8106 21.1171 45.0627 21.5618 43.0615 21.5618ZM43.0615 17.3742C44.8403 17.3742 46.1621 16.7812 47.0268 15.5954C47.8915 14.4095 48.3238 12.8778 48.3238 11.0001C48.3238 9.06074 47.8853 7.51664 47.0082 6.36783C46.1312 5.20666 44.8156 4.62608 43.0615 4.62608C41.8633 4.62608 40.8751 4.89784 40.0968 5.44136C39.331 5.97254 38.7627 6.71988 38.3922 7.6834C38.0216 8.63457 37.8363 9.74014 37.8363 11.0001C37.8363 12.9395 38.2748 14.4898 39.1519 15.651C40.0413 16.7998 41.3445 17.3742 43.0615 17.3742Z" fill="#FDFDFD"/>
<path d="M24.0695 21.006V8.85082C24.0695 7.47965 23.7298 6.41114 23.0503 5.64526C22.3709 4.86703 21.4507 4.47792 20.2895 4.47792C19.573 4.47792 18.9307 4.64468 18.3625 4.97821C17.7942 5.29938 17.3433 5.78114 17.0098 6.42349C16.6763 7.05348 16.5095 7.807 16.5095 8.68405L14.5269 7.51671C14.5146 6.1332 14.8234 4.91645 15.4534 3.86646C16.0957 2.80411 16.9604 1.97648 18.0475 1.38354C19.1345 0.790608 20.3451 0.494141 21.6792 0.494141C23.8903 0.494141 25.5827 1.16119 26.7562 2.49529C27.9421 3.81705 28.535 5.55879 28.535 7.72053V21.006H24.0695ZM0 21.006V0.994429H3.94672V7.20172H4.5026V21.006H0ZM12.0625 21.006V8.9064C12.0625 7.51054 11.7228 6.42349 11.0434 5.64526C10.364 4.86703 9.43755 4.47792 8.26403 4.47792C7.12757 4.47792 6.21346 4.86703 5.52171 5.64526C4.8423 6.42349 4.5026 7.43642 4.5026 8.68405L2.50144 7.34995C2.50144 6.0529 2.82262 4.88556 3.46496 3.84793C4.10731 2.81029 4.97201 1.99501 6.05905 1.40207C7.15845 0.796784 8.38756 0.494141 9.74637 0.494141C11.2411 0.494141 12.4887 0.815312 13.4893 1.45766C14.5022 2.08765 15.2557 2.95235 15.7498 4.05175C16.2563 5.1388 16.5095 6.3679 16.5095 7.73906V21.006H12.0625Z" fill="#FDFDFD"/>
</svg>
