<svg width="120" height="16" viewBox="0 0 120 16" fill="none" xmlns="http://www.w3.org/2000/svg">
<path d="M113.803 15.9216C111.95 15.9216 110.444 15.5047 109.286 14.6709C108.128 13.837 107.424 12.6651 107.174 11.1549L110.592 10.6269C110.768 11.368 111.158 11.9517 111.76 12.3779C112.362 12.804 113.122 13.0171 114.039 13.0171C114.845 13.0171 115.466 12.8596 115.901 12.5446C116.346 12.2204 116.568 11.7803 116.568 11.2244C116.568 10.8816 116.485 10.6083 116.318 10.4045C116.16 10.1914 115.808 9.9876 115.262 9.79304C114.715 9.59849 113.877 9.35298 112.746 9.05651C111.486 8.72298 110.486 8.36629 109.745 7.98645C109.004 7.59733 108.471 7.13873 108.147 6.61065C107.822 6.08257 107.66 5.44331 107.66 4.69288C107.66 3.75715 107.906 2.94186 108.397 2.24702C108.888 1.55217 109.573 1.01946 110.454 0.648875C111.334 0.269026 112.371 0.0791016 113.566 0.0791016C114.734 0.0791016 115.767 0.259761 116.665 0.62108C117.573 0.9824 118.305 1.49659 118.861 2.16364C119.417 2.83069 119.76 3.61355 119.889 4.51222L116.471 5.12368C116.387 4.48442 116.096 3.9795 115.595 3.60892C115.104 3.23833 114.447 3.02988 113.622 2.98356C112.835 2.93723 112.2 3.05767 111.718 3.34488C111.236 3.62281 110.995 4.01656 110.995 4.52611C110.995 4.81332 111.093 5.05883 111.287 5.26265C111.482 5.46647 111.871 5.67029 112.455 5.87411C113.048 6.07794 113.928 6.32808 115.095 6.62455C116.29 6.93028 117.244 7.28233 117.958 7.68071C118.68 8.06983 119.199 8.53769 119.514 9.0843C119.839 9.63091 120.001 10.2933 120.001 11.0716C120.001 12.5817 119.449 13.7676 118.347 14.6292C117.254 15.4908 115.739 15.9216 113.803 15.9216Z" fill="#FDFDFD"/>
<path d="M88.8282 15.5042L84.2422 0.467773L87.5219 0.495567L90.4541 10.1261L93.428 0.495567H96.2491L99.2092 10.1261L102.155 0.495567H105.435L100.849 15.5042H98.2364L94.8316 5.17883L91.4408 15.5042H88.8282Z" fill="#FDFDFD"/>
<path d="M74.5076 15.9216C73.0067 15.9216 71.6958 15.5834 70.5747 14.9071C69.4537 14.2308 68.5828 13.2997 67.9621 12.1138C67.3507 10.9187 67.0449 9.54753 67.0449 8.00034C67.0449 6.42536 67.3599 5.04493 67.9899 3.85906C68.6199 2.67319 69.4954 1.74673 70.6164 1.07968C71.7374 0.412627 73.0345 0.0791016 74.5076 0.0791016C76.0177 0.0791016 77.3333 0.41726 78.4543 1.09358C79.5753 1.76989 80.4462 2.70562 81.0669 3.90075C81.6876 5.08662 81.998 6.45315 81.998 8.00034C81.998 9.5568 81.683 10.9326 81.053 12.1277C80.4323 13.3136 79.5614 14.2447 78.4404 14.921C77.3194 15.5881 76.0084 15.9216 74.5076 15.9216ZM74.5076 12.7809C75.8417 12.7809 76.833 12.3362 77.4815 11.4468C78.13 10.5574 78.4543 9.40856 78.4543 8.00034C78.4543 6.5458 78.1254 5.38772 77.4676 4.52611C76.8098 3.65524 75.8231 3.2198 74.5076 3.2198C73.6089 3.2198 72.8677 3.42362 72.2841 3.83127C71.7097 4.22965 71.2835 4.79015 71.0055 5.51279C70.7276 6.22617 70.5886 7.05535 70.5886 8.00034C70.5886 9.45488 70.9175 10.6176 71.5753 11.4885C72.2424 12.3501 73.2198 12.7809 74.5076 12.7809Z" fill="#FDFDFD"/>
<path d="M56.1016 15.5047V0.495993H59.0616V4.15088L58.7003 3.67839C58.8856 3.1781 59.1311 2.72413 59.4368 2.31649C59.7518 1.89958 60.127 1.55679 60.5625 1.28812C60.9331 1.03797 61.3407 0.843415 61.7854 0.704446C62.2394 0.556212 62.7026 0.468198 63.1751 0.440404C63.6476 0.403346 64.1062 0.421876 64.5509 0.495993V3.6228C64.1062 3.49309 63.592 3.4514 63.0083 3.49773C62.4339 3.54405 61.9151 3.70618 61.4519 3.98412C60.9886 4.23426 60.6088 4.55389 60.3123 4.943C60.0251 5.33212 59.812 5.77682 59.6731 6.27711C59.5341 6.76813 59.4646 7.30085 59.4646 7.87525V15.5047H56.1016Z" fill="#FDFDFD"/>
<path d="M43.7695 15.5047V0.495993H46.7296V4.15088L46.3683 3.67839C46.5535 3.1781 46.7991 2.72413 47.1048 2.31649C47.4198 1.89958 47.795 1.55679 48.2304 1.28812C48.601 1.03797 49.0087 0.843415 49.4534 0.704446C49.9073 0.556212 50.3706 0.468198 50.8431 0.440404C51.3156 0.403346 51.7742 0.421876 52.2189 0.495993V3.6228C51.7742 3.49309 51.26 3.4514 50.6763 3.49773C50.1019 3.54405 49.5831 3.70618 49.1198 3.98412C48.6566 4.23426 48.2768 4.55389 47.9803 4.943C47.6931 5.33212 47.48 5.77682 47.341 6.27711C47.2021 6.76813 47.1326 7.30085 47.1326 7.87525V15.5047H43.7695Z" fill="#FDFDFD"/>
<path d="M32.2966 15.9216C30.7958 15.9216 29.4848 15.5834 28.3638 14.9071C27.2428 14.2308 26.3719 13.2997 25.7512 12.1138C25.1397 10.9187 24.834 9.54753 24.834 8.00034C24.834 6.42536 25.149 5.04493 25.779 3.85906C26.409 2.67319 27.2845 1.74673 28.4055 1.07968C29.5265 0.412627 30.8236 0.0791016 32.2966 0.0791016C33.8068 0.0791016 35.1223 0.41726 36.2434 1.09358C37.3644 1.76989 38.2352 2.70562 38.856 3.90075C39.4767 5.08662 39.7871 6.45315 39.7871 8.00034C39.7871 9.5568 39.4721 10.9326 38.8421 12.1277C38.2213 13.3136 37.3505 14.2447 36.2295 14.921C35.1084 15.5881 33.7975 15.9216 32.2966 15.9216ZM32.2966 12.7809C33.6307 12.7809 34.622 12.3362 35.2706 11.4468C35.9191 10.5574 36.2434 9.40856 36.2434 8.00034C36.2434 6.5458 35.9145 5.38772 35.2567 4.52611C34.5989 3.65524 33.6122 3.2198 32.2966 3.2198C31.398 3.2198 30.6568 3.42362 30.0731 3.83127C29.4987 4.22965 29.0725 4.79015 28.7946 5.51279C28.5167 6.22617 28.3777 7.05535 28.3777 8.00034C28.3777 9.45488 28.7066 10.6176 29.3644 11.4885C30.0314 12.3501 31.0088 12.7809 32.2966 12.7809Z" fill="#FDFDFD"/>
<path d="M18.0521 15.505V6.3886C18.0521 5.36023 17.7973 4.55884 17.2878 3.98443C16.7782 3.40076 16.088 3.10893 15.2171 3.10893C14.6798 3.10893 14.198 3.234 13.7718 3.48415C13.3457 3.72503 13.0075 4.08634 12.7574 4.5681C12.5072 5.0406 12.3822 5.60574 12.3822 6.26353L10.8952 5.38802C10.8859 4.35039 11.1175 3.43782 11.59 2.65033C12.0718 1.85357 12.7203 1.23285 13.5356 0.788145C14.3509 0.343444 15.2588 0.121094 16.2594 0.121094C17.9178 0.121094 19.187 0.621382 20.0671 1.62196C20.9565 2.61327 21.4012 3.91958 21.4012 5.54089V15.505H18.0521ZM0 15.505V0.49631H2.96004V5.15177H3.37695V15.505H0ZM9.04689 15.505V6.43029C9.04689 5.38339 8.79211 4.5681 8.28256 3.98443C7.77301 3.40076 7.07816 3.10893 6.19802 3.10893C5.34568 3.10893 4.6601 3.40076 4.14128 3.98443C3.63173 4.5681 3.37695 5.3278 3.37695 6.26353L1.87608 5.26295C1.87608 4.29017 2.11696 3.41466 2.59872 2.63643C3.08048 1.85821 3.72901 1.24674 4.54429 0.802041C5.36884 0.348076 6.29067 0.121094 7.30978 0.121094C8.43079 0.121094 9.36652 0.361972 10.117 0.843731C10.8767 1.31623 11.4418 1.96475 11.8124 2.7893C12.1922 3.60459 12.3822 4.52642 12.3822 5.55479V15.505H9.04689Z" fill="#FDFDFD"/>
</svg>
