<svg width="250" height="34" viewBox="0 0 250 34" fill="none" xmlns="http://www.w3.org/2000/svg">
<path d="M237.087 33.5022C233.227 33.5022 230.091 32.6337 227.678 30.8966C225.265 29.1595 223.798 26.7178 223.277 23.5717L230.4 22.4716C230.766 24.0157 231.577 25.2316 232.831 26.1195C234.086 27.0074 235.669 27.4513 237.58 27.4513C239.259 27.4513 240.552 27.1232 241.459 26.4669C242.386 25.7914 242.849 24.8746 242.849 23.7165C242.849 23.0023 242.675 22.433 242.328 22.0083C242 21.5644 241.266 21.1398 240.127 20.7344C238.989 20.3291 237.242 19.8176 234.887 19.2C232.262 18.5052 230.178 17.7621 228.633 16.9707C227.089 16.16 225.98 15.2046 225.304 14.1045C224.628 13.0043 224.291 11.6725 224.291 10.1091C224.291 8.15967 224.802 6.46116 225.825 5.01357C226.848 3.56597 228.276 2.45615 230.11 1.6841C231.944 0.892746 234.105 0.49707 236.595 0.49707C239.027 0.49707 241.179 0.873445 243.051 1.62619C244.943 2.37894 246.468 3.45016 247.626 4.83986C248.784 6.22955 249.498 7.8605 249.768 9.73273L242.646 11.0066C242.472 9.67482 241.864 8.6229 240.822 7.85085C239.799 7.0788 238.429 6.64452 236.711 6.54802C235.07 6.45151 233.748 6.70243 232.745 7.30077C231.741 7.8798 231.239 8.70011 231.239 9.76168C231.239 10.36 231.442 10.8715 231.847 11.2961C232.252 11.7208 233.063 12.1454 234.279 12.57C235.514 12.9946 237.348 13.5158 239.78 14.1334C242.27 14.7704 244.258 15.5038 245.744 16.3338C247.25 17.1444 248.33 18.1191 248.987 19.2579C249.662 20.3967 250 21.7767 250 23.398C250 26.5441 248.852 29.0147 246.555 30.8097C244.277 32.6047 241.121 33.5022 237.087 33.5022Z" fill="#FDFDFD"/>
<path d="M185.06 32.6336L175.506 1.30762L182.339 1.36552L188.447 21.4292L194.643 1.36552H200.52L206.687 21.4292L212.825 1.36552H219.658L210.103 32.6336H204.66L197.567 11.1223L190.503 32.6336H185.06Z" fill="#FDFDFD"/>
<path d="M155.227 33.5022C152.1 33.5022 149.369 32.7977 147.033 31.3887C144.698 29.9798 142.884 28.04 141.591 25.5694C140.317 23.0796 139.68 20.223 139.68 16.9997C139.68 13.7184 140.336 10.8425 141.648 8.37198C142.961 5.90142 144.785 3.9713 147.12 2.58161C149.456 1.19192 152.158 0.49707 155.227 0.49707C158.373 0.49707 161.114 1.20157 163.449 2.61056C165.785 4.01955 167.599 5.96898 168.892 8.45884C170.185 10.9294 170.832 13.7763 170.832 16.9997C170.832 20.2423 170.176 23.1085 168.863 25.5984C167.57 28.0689 165.756 30.0087 163.42 31.4177C161.085 32.8074 158.354 33.5022 155.227 33.5022ZM155.227 26.9591C158.006 26.9591 160.071 26.0326 161.423 24.1797C162.774 22.3268 163.449 19.9334 163.449 16.9997C163.449 13.9694 162.764 11.5567 161.394 9.76168C160.023 7.94736 157.968 7.0402 155.227 7.0402C153.355 7.0402 151.811 7.46483 150.595 8.31408C149.398 9.14404 148.51 10.3118 147.931 11.8173C147.352 13.3035 147.062 15.0309 147.062 16.9997C147.062 20.03 147.748 22.4523 149.118 24.2666C150.508 26.0616 152.544 26.9591 155.227 26.9591Z" fill="#FDFDFD"/>
<path d="M116.879 32.6334V1.36535H123.046V8.9797L122.293 7.99533C122.679 6.95307 123.19 6.0073 123.827 5.15805C124.484 4.28949 125.265 3.57535 126.172 3.01561C126.945 2.49447 127.794 2.08915 128.72 1.79963C129.666 1.49081 130.631 1.30744 131.615 1.24954C132.6 1.17233 133.555 1.21094 134.482 1.36535V7.87953C133.555 7.60931 132.484 7.52245 131.268 7.61896C130.071 7.71547 128.99 8.05324 128.025 8.63227C127.06 9.15341 126.269 9.8193 125.651 10.63C125.053 11.4406 124.609 12.3671 124.32 13.4093C124.03 14.4323 123.885 15.5421 123.885 16.7388V32.6334H116.879Z" fill="#FDFDFD"/>
<path d="M91.1855 32.6334V1.36535H97.3523V8.9797L96.5996 7.99533C96.9856 6.95307 97.4971 6.0073 98.134 5.15805C98.7902 4.28949 99.572 3.57535 100.479 3.01561C101.251 2.49447 102.1 2.08915 103.027 1.79963C103.973 1.49081 104.938 1.30744 105.922 1.24954C106.906 1.17233 107.862 1.21094 108.788 1.36535V7.87953C107.862 7.60931 106.791 7.52245 105.575 7.61896C104.378 7.71547 103.297 8.05324 102.332 8.63227C101.367 9.15341 100.576 9.8193 99.958 10.63C99.3596 11.4406 98.9157 12.3671 98.6262 13.4093C98.3367 14.4323 98.1919 15.5421 98.1919 16.7388V32.6334H91.1855Z" fill="#FDFDFD"/>
<path d="M67.2855 33.5022C64.1586 33.5022 61.4275 32.7977 59.0921 31.3887C56.7566 29.9798 54.9423 28.04 53.6491 25.5694C52.3752 23.0796 51.7383 20.223 51.7383 16.9997C51.7383 13.7184 52.3945 10.8425 53.707 8.37198C55.0195 5.90142 56.8435 3.9713 59.1789 2.58161C61.5144 1.19192 64.2166 0.49707 67.2855 0.49707C70.4316 0.49707 73.1723 1.20157 75.5078 2.61056C77.8433 4.01955 79.6576 5.96898 80.9508 8.45884C82.2439 10.9294 82.8905 13.7763 82.8905 16.9997C82.8905 20.2423 82.2343 23.1085 80.9218 25.5984C79.6286 28.0689 77.8143 30.0087 75.4788 31.4177C73.1434 32.8074 70.4123 33.5022 67.2855 33.5022ZM67.2855 26.9591C70.0648 26.9591 72.1301 26.0326 73.4812 24.1797C74.8322 22.3268 75.5078 19.9334 75.5078 16.9997C75.5078 13.9694 74.8226 11.5567 73.4522 9.76168C72.0818 7.94736 70.0262 7.0402 67.2855 7.0402C65.4132 7.0402 63.8691 7.46483 62.6531 8.31408C61.4565 9.14404 60.5686 10.3118 59.9896 11.8173C59.4105 13.3035 59.121 15.0309 59.121 16.9997C59.121 20.03 59.8062 22.4523 61.1766 24.2666C62.5663 26.0616 64.6026 26.9591 67.2855 26.9591Z" fill="#FDFDFD"/>
<path d="M37.6085 32.6337V13.6413C37.6085 11.4988 37.0777 9.82929 36.0162 8.63261C34.9546 7.41663 33.5167 6.80864 31.7023 6.80864C30.5829 6.80864 29.5792 7.06921 28.6913 7.59034C27.8035 8.09218 27.099 8.84492 26.5778 9.84859C26.0567 10.833 25.7961 12.0103 25.7961 13.3807L22.6983 11.5568C22.679 9.39501 23.1615 7.49384 24.1459 5.85323C25.1496 4.19332 26.5006 2.90013 28.1992 1.97367C29.8977 1.04721 31.7892 0.583984 33.8737 0.583984C37.3287 0.583984 39.9729 1.62625 41.8065 3.71079C43.6595 5.77602 44.5859 8.4975 44.5859 11.8752V32.6337H37.6085ZM0 32.6337V1.36568H6.16676V11.0646H7.03531V32.6337H0ZM18.8477 32.6337V13.7281C18.8477 11.5471 18.3169 9.84859 17.2553 8.63261C16.1938 7.41663 14.7462 6.80864 12.9125 6.80864C11.1368 6.80864 9.70854 7.41663 8.62767 8.63261C7.5661 9.84859 7.03531 11.4313 7.03531 13.3807L3.90851 11.2962C3.90851 9.26955 4.41034 7.44558 5.41401 5.82428C6.41767 4.20297 7.76876 2.92909 9.46727 2.00262C11.1851 1.05686 13.1056 0.583984 15.2287 0.583984C17.5642 0.583984 19.5136 1.08581 21.077 2.08948C22.6597 3.07384 23.8371 4.42493 24.6091 6.14275C25.4005 7.84126 25.7961 9.76174 25.7961 11.9042V32.6337H18.8477Z" fill="#FDFDFD"/>
</svg>
